<?xml version="1.0" encoding="utf-8"?>
<!-- Generator: Adobe Illustrator 19.2.0, SVG Export Plug-In . SVG Version: 6.00 Build 0)  -->
<!DOCTYPE svg PUBLIC "-//W3C//DTD SVG 1.1//EN" "http://www.w3.org/Graphics/SVG/1.1/DTD/svg11.dtd">
<svg version="1.1" id="Layer_1" xmlns="http://www.w3.org/2000/svg" xmlns:xlink="http://www.w3.org/1999/xlink" x="0px" y="0px"
	 viewBox="0 0 134.1 125" enable-background="new 0 0 134.1 125" xml:space="preserve">
<path d="M115,15.7C97.6-0.7,72.5,0.1,72.5,0.1C60,0.2,49.4,4.4,42.3,8.2c-12.9,7-21.4,20.2-21.9,34.9c-0.1,3.8,0.3,6.2,0.3,6.2
	C18,49.7,15,52.7,15,52.7v0c-0.6,0-1.3-0.3-1.8-1.1c-0.2-0.4-0.3-0.8-0.3-1.3c0-1.4,0.1-5.5,0.3-6.2c0,0-6.2,6.9-13.2,2.9
	c0,0-1.3,5.1,7.9,5.5c0,0-5.1,15.2,3,21.4c0.8,0.7,1.8,1.1,2.8,1.4c1.8,0.6,4.9,1.1,8.7,0.1c9,13.8,23.9,14.7,23.9,14.7
	c2.9,0.3,4.1,1,4.1,1c2.7,1,3.5,3.2,3.6,3.5c0,0,0,0,0,0c0.8,2.9-0.5,6.6-0.5,6.6c1.4-1,3.3-1.8,4.9-2.1c3.7-0.7,7.6-0.1,9.3,0.6
	c2.2,0.9,3.3,3.1,3.3,3.1c0.6-0.4,1-0.9,1.3-1.4c0.6-1.1,0.5-2.4-0.4-3.3c-1.4-1.4-3.9-2.1-3.9-2.1c3.1-0.6,5.1,0.3,5.1,0.3
	c1.6,0.5,2.3,2.6,2.3,2.6c0.2-0.1,0.4-0.3,0.6-0.5c1.2-1.5,1-3.7-0.5-5c-1.4-1.2-3.6-1.7-4.3-1.8c-0.3-0.1-0.6-0.1-0.8-0.2
	c-1.1-0.3-3.1-0.8-3.1-0.8c-2.8-1-3.5-2.8-3.7-3.7c0,0,0,0,0,0v0c-0.4-4.3,3-5.5,3-5.5v0c0.5-0.1,0.9,0.2,1.1,0.3
	c0.2,0.1,0.3,0.3,0.5,0.4c2.9,1.8,5.2,1.7,5.2,1.7c2.7-0.2,4.2-0.8,4.7-1c-1-0.4-1.5-1.7-1.5-1.8c0.6,1.1,1.8,1.5,2,1.6
	c0.4-0.2,0.5-0.6,0.5-0.6c0-0.3-0.5-1.2-0.9-1.7c-0.2-0.3-0.3-0.6-0.4-0.9c-0.5-1.5-1.1-4.6-1.4-5.6c-0.1-0.2-0.1-0.5-0.2-0.7
	c-0.7-1.6-1.6-2.7-2.6-3.6c0.3-0.2,0.6-0.4,0.9-0.7c1-1.1,1.2-2.5,0.5-3.2c-0.8-0.7-2.2-0.4-3.2,0.6c-0.5,0.5-0.8,1.2-0.9,1.7
	c-1.7-0.6-3-0.4-3-0.4c0-2.8-0.7-4-1.4-4.6c-0.6-0.5-1.4-0.5-2.2-0.2c-3.6,1.6-0.4,7-0.4,7c-1.2,3.6-5.4,5.6-5.4,5.6
	c-6.1,2.2-11.5-1.8-15.1-5.8c-2.3-2.5-4.2-5.4-5.5-8.5c-3.9-9-9.4-11.2-12.5-11.8c-0.1,0.3-0.2,0.5-0.2,0.5c0,0,0,0,0,0l0-0.6
	c0.1,0,0.1,0,0.2,0c0,0,0,0,0,0c1-3.1,6.6-18,19.8-21.2h0c1-0.2,2.1-0.4,3.2-0.5c7.1-0.8,17.7,0,26,9.5c0,0-1.6-6.6-7.7-10.5
	c8.3,1.3,14.9,4.6,19.7,7.9c0,0,0,0,0,0c0.1,0.1,1,0.6,2.3,1.7c0,0,0,0,0,0c3.4,2.9,9.5,9.4,12.1,21v0c1.4,7,0.7,15.4-5.2,23.8
	c0,0,6.8-3.1,10.1-13.9c0.4,6-0.6,10.2-0.6,10.2c-4.2,19.4-19.9,24.6-19.9,24.6c-11.7,4.8-13,11.6-13,11.6
	c-3.9-8.8-13.5-5.4-13.5-5.4c-5.3,1.2-9.5-5.3-9.5-5.3c0.5,3.7,4.1,7.9,4.1,7.9c-2.6-0.4-8-5.9-8-5.9c0.5,3.6,4.3,7.6,4.3,7.6
	c-2.4-0.4-6.9-3.7-6.9-3.7c3.8,11.3,15.8,10.1,15.8,10.1c3.4-0.7,5.3-0.5,5.3-0.5c6.7,0.7,9.3,6.6,9.3,6.6
	c2.6-9.3,14.8-10.5,14.8-10.5c1.6-0.3,11.4-2.4,15.2-3.3c1.5-0.3,3-0.7,4.4-1.3c21.5-8.5,25.9-39.5,25.9-39.5
	C137.8,37.4,115,15.7,115,15.7z M72.9,75.3c0.2-0.9,1.1-0.7,1.1-0.7c-1.4-2.4-3.7-1.9-3.9-1.9c1.9-0.8,3.4,0.5,3.5,0.6
	c-0.2-0.7-0.9-1.3-1-1.3c2.8,0.9,2.7,5.7,2.7,5.7c-5-5.3-7.9-0.5-8-0.3C69.1,73.5,72.9,75.3,72.9,75.3z M65.3,67.1
	c0.2-0.9-0.6-2.3-0.7-2.4c2,1.9,0.9,4.4,0.9,4.4l-0.3,0.7c0.3-2.4-1.1-3.8-1.1-3.8C64.9,66.4,65.3,67.1,65.3,67.1z M92.1,38.9
	C92.1,38.9,92.1,38.9,92.1,38.9L92.1,38.9L92.1,38.9z"/>
</svg>
